# xmcd CD database file
#
# Track frame offsets:
#	150
#	28650
#	45895
#	61780
#	79262
#	90250
#	108055
#	124137
#	147577
#	161127
#
# Disc length: 2434 seconds
#
# Revision: 0
# Processed by: cddbd v1.5.2PL0 Copyright (c) Steve Scherf et al.
# Submitted via: CDex 1.70beta3
#
DISCID=7609800a
DTITLE=Monday Michiru and Akiyoshi Toshiko - Jazz Conversations
DYEAR=2015
DGENRE=Jazz
TTITLE0=Long Yellow Road
TTITLE1=First Night
TTITLE2=Love and Life
TTITLE3=Warning: Success May Be Hazardous to Your Health
TTITLE4=New Girl in Town (Where Are We?)
TTITLE5=Broken Dreams
TTITLE6=Dreaming
TTITLE7=Ain't Gonna Ask No more
TTITLE8=Frog
TTITLE9=One Note Samba
EXTD=YEAR: 2015
EXTT0=
EXTT1=
EXTT2=
EXTT3=
EXTT4=
EXTT5=
EXTT6=
EXTT7=
EXTT8=
EXTT9=
PLAYORDER=
